<svg aria-hidden="true" style="width:0;height:0;position:absolute;overflow:hidden" xmlns="http://www.w3.org/2000/svg"><defs><symbol id="icon-fire" viewBox="0 0 24 32"><path fill="#ff6b09" style="fill:var(--color1,#ff6b09)" d="M22.407 16.593c-.29-.635-.69-1.261-1.275-1.983-1.475-1.813-1.925-5.857-1.93-5.896a.49.49 0 0 0-.345-.412.514.514 0 0 0-.53.141c-1.76 1.925-1.02 4.897-.62 6.085.11.325.23.708.315 1.096.65 3.137-.605 4.558-.9 4.844-.285.078-.48.039-.66-.15-.62-.664-.825-2.841-.535-5.678a5.679 5.679 0 0 0-.04-1.581c-.612-3.486-2.854-5.722-3.425-6.507-1.57-2.269-1.73-6.046-1.735-6.08a.475.475 0 0 0-.275-.417.508.508 0 0 0-.505.034c-2.62 1.741-2.395 5.935-2.03 8.276.085.543.25 1.096.535 1.794 1.015 2.497-.2 5.721-.21 5.75s-.02.053-.025.082c-.155.795-.415 1.27-.705 1.27a.34.34 0 0 1-.095-.015c-.355-.073-.54-.441-.545-.761-.02-4.136-4.265-5.527-4.31-5.542a.506.506 0 0 0-.53.145.468.468 0 0 0-.07.533c.05.102.21.548.1 2.124a17.747 17.747 0 0 1-.785 4.16c-1.01 3.219-.85 6.269-.84 6.415.777 8.257 12.922 9.704 20.13 5.052.79-.509 1.435-1.091 1.91-1.731 2.66-3.588 1.095-8.46-.07-11.05zM3.932 24.481a.488.488 0 0 1-.47.509h-.03a.493.493 0 0 1-.5-.456 17.1 17.1 0 0 1 .02-2.255.501.501 0 0 1 .535-.451.492.492 0 0 1 .465.519 15.307 15.307 0 0 0-.02 2.133zm.245-4.295a.493.493 0 0 1-.495.427c-.02 0-.04 0-.065-.005a.492.492 0 0 1-.435-.538l.24-1.872a.503.503 0 0 1 .56-.422c.275.034.47.276.435.543l-.24 1.867zM19.024 6.633a.487.487 0 0 1-.418-.553c.031-.197.212-1.205.702-1.713.189-.196.505-.206.707-.022s.212.49.023.685c-.208.215-.384.829-.443 1.197a.499.499 0 0 1-.571.405zM.796 9.048C.7 8.687.462 8.093.234 7.899c-.208-.177-.229-.483-.046-.684s.497-.222.706-.045c.539.458.82 1.445.871 1.638a.485.485 0 0 1-.36.59.502.502 0 0 1-.609-.349z"/></symbol><symbol id="icon-Rectangle-15" viewBox="0 0 320 32"><path fill="#ff6b09" style="fill:var(--color1,#ff6b09)" d="M0 0h320v32H0V0z"/></symbol><symbol id="icon-Vector" viewBox="0 0 41 32"><path fill="#ff6b09" style="fill:var(--color1,#ff6b09)" d="M36.305 1.514a31.467 31.467 0 0 0-4.494 2.379c-2.878 1.797-5.508 3.936-7.976 6.218-2.466 2.287-4.763 4.735-6.934 7.28-.543.636-2.974 3.47-2.974 3.47L3.816 6.481-.001 16.523 13.672 32c1.328-2.551 2.605-5.07 3.859-7.258.311-.556.638-1.08.949-1.612 0 0 1.605-2.677 2.027-3.352 1.687-2.697 3.511-5.325 5.52-7.821 2.011-2.491 4.197-4.87 6.675-6.961a29.721 29.721 0 0 1 3.952-2.872c1.403-.848 2.894-1.591 4.489-2.125-1.659.31-3.278.848-4.838 1.514z"/></symbol></defs></svg>