<svg aria-hidden="true" style="width:0;height:0;position:absolute;overflow:hidden" xmlns="http://www.w3.org/2000/svg"><defs><symbol id="icon-logo1" viewBox="0 0 32 32"><path d="m29.071 6.087-.001-.002a.242.242 0 0 0-.053-.079l-4.231-4.188a.193.193 0 0 0-.036-.028l-.008-.005a.324.324 0 0 0-.032-.017l-.009-.004a.26.26 0 0 0-.087-.018H5.97a.249.249 0 0 0-.25.248V27.54a.28.28 0 0 0 .005.049l.006.02.008.026c.003.008.008.015.012.022l.011.02c.009.012.018.024.029.035l.002.003 1.906 1.886a.252.252 0 0 0 .354 0l1.729-1.711 1.729 1.711a.249.249 0 0 0 .354 0l1.729-1.711 1.729 1.711a.252.252 0 0 0 .354 0l1.729-1.711 1.729 1.711a.25.25 0 0 0 .353 0l1.73-1.711 1.729 1.711a.249.249 0 0 0 .354 0l1.729-1.711 1.73 1.711a.25.25 0 0 0 .353 0l1.906-1.886.01-.012c.007-.008.015-.016.021-.025s.01-.018.014-.026l.008-.016c.005-.011.008-.023.011-.034l.004-.012a.284.284 0 0 0 .005-.051V6.183a.26.26 0 0 0-.02-.095zm-4.212-3.496 3.377 3.343h-3.377V2.591zm3.731 24.845-1.655 1.639-1.73-1.711a.252.252 0 0 0-.353 0l-1.729 1.711-1.729-1.711a.254.254 0 0 0-.354 0l-1.73 1.711-1.728-1.71v-.001a.252.252 0 0 0-.354 0L15.5 29.075l-1.729-1.711a.254.254 0 0 0-.354 0l-1.729 1.711-1.729-1.711a.254.254 0 0 0-.354 0l-1.729 1.711-1.655-1.639V2.24h18.138v3.941c0 .137.112.248.25.248h3.98v21.007z"/><path d="M8.085 4.583h8.19c.138 0 .25-.111.25-.248s-.112-.248-.25-.248h-8.19c-.138 0-.25.111-.25.248s.112.248.25.248zM8.085 6.114h13.134c.138 0 .25-.111.25-.248s-.112-.248-.25-.248H8.085c-.138 0-.25.111-.25.248s.112.248.25.248zM7.835 7.488v8.017c0 .137.112.248.25.248h18.639c.138 0 .25-.111.25-.248V7.488a.249.249 0 0 0-.25-.248H8.085a.249.249 0 0 0-.25.248zm5.528.248h13.111v2.131H13.363V7.736zm0 2.626h13.111v2.13H13.363v-2.13zm0 2.625h13.111v2.271H13.363v-2.271zM8.336 7.736h4.527v2.131H8.336V7.736zm0 2.626h4.527v2.13H8.336v-2.13zm0 2.625h4.527v2.271H8.336v-2.271zM26.725 16.867H8.086a.249.249 0 0 0-.25.248v8.017c0 .137.112.247.25.247s.25-.111.25-.247v-2.518h4.527v2.518c0 .137.112.247.25.247s.25-.111.25-.247v-2.518h13.111v2.518c0 .137.112.247.25.247s.25-.111.25-.247v-8.017a.248.248 0 0 0-.249-.248zm-13.862 5.251H8.336v-2.13h4.527v2.13zm0-2.625H8.336v-2.13h4.527v2.13zm13.611 2.625H13.363v-2.13h13.111v2.13zm0-2.625H13.363v-2.13h13.111v2.13zM4.535 1.745a.249.249 0 0 0-.25.248v25.546c0 .136.112.247.25.247s.25-.111.25-.247V1.993a.249.249 0 0 0-.25-.248zM3.159 1.745a.249.249 0 0 0-.25.248v25.546c0 .136.112.247.25.247s.25-.111.25-.247V1.993a.249.249 0 0 0-.25-.248z"/></symbol><symbol id="icon-logo2" viewBox="0 0 32 32"><path d="M28.09 2.327H14.666c-.874 0-1.585.707-1.585 1.576v5.526l-9.973 4.162a.323.323 0 0 0-.041.575l1.272.757v8.066a1.46 1.46 0 0 0-1.138 1.419v.778c0 .178.145.323.325.323h2.277a.325.325 0 0 0 .325-.323v-.778c0-.692-.488-1.27-1.139-1.418v-7.681l1.006.599c-.031.231-.004-.402-.014 3.755 0 1.367 3.52 2.099 7.102 2.141v6.295c0 .325.1.628.271.879.285.419.767.695 1.313.695h13.424a1.58 1.58 0 0 0 1.583-1.574c0 .043-.002-1.333 0-24.195a1.59 1.59 0 0 0-1.582-1.576zM5.478 24.408v.455H3.85v-.455a.813.813 0 0 1 1.628 0zm22.612 4.617H14.666a.937.937 0 0 1-.775-.408.918.918 0 0 1-.16-.519v-2.182h15.29v2.183a.937.937 0 0 1-.931.926zm.931-3.755H13.73v-3.464c1.749-.02 7.106-.403 7.106-2.143-.002-2.612.005-3.671-.008-3.76l2.916-1.737a.323.323 0 0 0-.041-.575L13.73 9.429V6.732h15.291v18.539zm-15.615-7.751c-1.801 0-5.27.231-6.777 1.21.01-2.993-.104-2.798.266-3.052.936-.685 3.613-1.164 6.511-1.164 1.264 0 6.781.345 6.781 1.507v2.709c-1.521-.988-4.972-1.21-6.781-1.21zm.325-13.616c0-.512.419-.929.934-.929h13.424c.515 0 .932.422.932.928v2.182h-15.29V3.902zm-.325 6.091 9.455 3.946-2.343 1.394c-1.246-1.228-5.366-1.466-7.112-1.466-1.749 0-5.869.239-7.112 1.467l-2.343-1.394 9.455-3.946zm-6.777 9.67c0-.523 2.328-1.498 6.777-1.498 4.452 0 6.781.976 6.781 1.498s-2.329 1.499-6.781 1.499c-4.449 0-6.777-.976-6.777-1.499z"/><path d="M21.377 26.403c-.592 0-1.074.479-1.074 1.068s.482 1.069 1.074 1.069c.592 0 1.074-.479 1.074-1.069s-.482-1.068-1.074-1.068zm0 1.491c-.234 0-.425-.19-.425-.423s.191-.422.425-.422c.234 0 .425.189.425.422s-.191.423-.425.423zM22.616 4.207h-2.478v.646h2.478v-.646z"/></symbol><symbol id="icon-logo3" viewBox="0 0 32 32"><path d="M14.717 11.566H7.538v.636h7.179v-.636zM14.717 9.194H6.274v.636h8.443v-.636zM14.717 13.939H6.274v.636h8.443v-.636zM14.717 16.311H7.538v.636h7.179v-.636zM14.717 18.683H6.274v.636h8.443v-.636zM14.717 21.055H7.538v.636h7.179v-.636zM26.308 9.194h-8.443v.636h8.443v-.636zM25.043 11.566h-7.179v.636h7.179v-.636zM26.308 13.939h-8.443v.636h8.443v-.636zM25.043 16.311h-7.179v.636h7.179v-.636zM26.308 18.683h-8.443v.636h8.443v-.636zM25.043 21.055h-7.179v.636h7.179v-.636z"/><path d="M29.357 8.47h-1.159V6.718a.317.317 0 0 0-.316-.318h-9.449c-.922 0-1.721.502-2.141 1.253A2.442 2.442 0 0 0 14.151 6.4H4.702a.317.317 0 0 0-.316.318V8.47H3.227a.317.317 0 0 0-.316.318v17.076c0 .176.142.318.316.318h26.131a.317.317 0 0 0 .316-.318V8.788a.317.317 0 0 0-.316-.318zM18.432 7.036h9.133v17.038h-9.808a1.86 1.86 0 0 0-1.151.424V8.869a1.82 1.82 0 0 1 1.825-1.832zm-13.416 0h9.133c.988 0 1.788.774 1.821 1.762 0 .014.002.057.004.07v15.628a1.844 1.844 0 0 0-1.147-.423H5.015V7.035zm-1.475 2.07h.843v15.286c0 .176.142.318.316.318h10.128c.482 0 .948.318 1.097.835H3.541V9.106zm25.5 16.44H16.658c.15-.52.611-.835 1.101-.835h10.124a.317.317 0 0 0 .316-.318V9.107h.843v16.439z"/></symbol><symbol id="icon-logo4" viewBox="0 0 32 32"><path d="M4.055 13.287v2.471c0 .133.06.258.164.34a9.574 9.574 0 0 0 5.924 2.061 9.66 9.66 0 0 0 1.912-.195c1.338.596 2.763.901 4.237.901 1.479 0 2.904-.305 4.237-.901 2.678.545 5.532-.04 7.835-1.866a.433.433 0 0 0 .164-.34v-2.471a1.05 1.05 0 0 0-.498-.896l-3.351-1.899c.733-.937 1.279-2.271 1.374-3.415.278-1.969-1.315-4.055-3.609-4.055-.965 0-1.881.4-2.554 1.071-.023.023-.05.043-.072.067-.021.022-.038.047-.058.07l-.038.046c-.656-1.204-1.916-1.948-3.4-1.948-.144 0-.286.01-.426.024-.009-.001-.016-.005-.024-.005-.08 0-.248.021-.339.047-.013.004-.023.013-.036.018a3.884 3.884 0 0 0-2.611 1.882 3.608 3.608 0 0 0-2.754-1.272c-3.386 0-4.888 4.025-2.216 7.489l-3.382 1.891c-.3.191-.479.522-.479.885zm16.465 3.726c-.073.036-.145.074-.218.107l-.002.001a9.48 9.48 0 0 1-4.009.878 9.534 9.534 0 0 1-5.783-1.944V13.55c0-.085.041-.161.089-.193l3.935-2.203c.49.419 1.115.726 1.763.726.624 0 1.299-.312 1.778-.736l3.888 2.199a.242.242 0 0 1 .113.207v2.504a9.512 9.512 0 0 1-1.554.958zm7.068-3.88c.051.032.08.088.08.154v2.258a8.613 8.613 0 0 1-5.837 1.728c.32-.201.668-.451.938-.663a.432.432 0 0 0 .164-.341v-2.718c0-.38-.189-.729-.529-.948l-2.065-1.169.502-.28c.609.5 1.132.649 1.602.649.574 0 1.178-.284 1.627-.662l3.518 1.993zm-5.144-9.245a2.79 2.79 0 0 1 2.618 1.87 3.195 3.195 0 0 1-1.938-.997.43.43 0 0 0-.683.073 3.193 3.193 0 0 1-2.207 1.536v-.003a4.378 4.378 0 0 0-.028-.57l-.006-.058a5.099 5.099 0 0 0-.105-.531c.488-.787 1.394-1.32 2.351-1.32zm-2.305 3.365a4.017 4.017 0 0 0 2.742-1.538 4.043 4.043 0 0 0 2.341.922c-.006 1.564-1.275 4.3-2.778 4.3-1.159 0-2.148-1.669-2.517-2.826.094-.298.162-.584.213-.858zm.087 3.254-.768.428-.775-.439c.287-.361.551-.779.777-1.233.217.459.477.882.766 1.244zm-1.158-2.538c-.414 1.245-1.477 3.046-2.772 3.046-1.51 0-2.795-2.5-3.04-4.098.065-.016 2.105.11 3.509-1.746.712.6 1.674.998 2.609 1.037.011.564-.125 1.227-.305 1.761zm-2.747-4.776c2.408 0 2.867 2.088 2.905 2.131a3.569 3.569 0 0 1-2.221-1.113.427.427 0 0 0-.683.075 3.534 3.534 0 0 1-3.103 1.764c.118-1.59 1.383-2.857 3.102-2.857zm-3.196 6.062c.223.449.488.878.791 1.255l-.759.425-.786-.445a6.77 6.77 0 0 0 .753-1.235zm-2.994-5.367c.974 0 1.867.498 2.365 1.321-.025.087-.092.435-.101.478a3.179 3.179 0 0 1-1.578-.927.427.427 0 0 0-.683.076A3.212 3.212 0 0 1 7.381 6.42c.137-1.42 1.315-2.531 2.75-2.531zM7.419 7.282a4.068 4.068 0 0 0 3.156-1.567c.516.428 1.129.71 1.781.839.025.502.155 1.111.303 1.561-.237.733-.692 1.606-1.257 2.187l-.012.009c-.353.375-.856.627-1.251.627-1.381 0-2.461-2.189-2.721-3.655zm-2.505 6.005c0-.066.029-.121.058-.141l3.566-1.993c.214.179.263.2.306.232.42.281.804.421 1.329.421.559 0 1.068-.239 1.516-.606.025-.02.052-.039.076-.059l.509.288-2.12 1.188a1.11 1.11 0 0 0-.506.935v2.718c0 .133.06.258.164.34.274.217.63.47.938.664a8.645 8.645 0 0 1-5.838-1.728v-2.258z"/><path d="M29.412 20.463a1.775 1.775 0 0 0-1.739-.096l-5.302 2.58a1.834 1.834 0 0 0-1.825-1.808l-3.04.001c-1.499-1.313-3.415-2.116-5.157-2.159a212.69 212.69 0 0 0-3.979-.056v-.874H2.329v10.051H8.37v-1.204c1.657.957 6.012 3.356 8.079 3.356.047 0 .093-.001.137-.004 3.635-.205 12.209-6.282 12.775-6.686a1.817 1.817 0 0 0 .053-3.102zM7.509 27.237H3.187v-8.32h4.322v8.32zm21.407-4.414a.303.303 0 0 0-.038.024c-.089.063-8.908 6.346-12.342 6.54a1.764 1.764 0 0 1-.105.003c-1.813 0-6.233-2.402-8.064-3.492v-6.106c.716.003 2.25.015 3.959.056 1.591.038 3.358.804 4.727 2.047l.123.112 3.368-.001c.535 0 .97.438.97.976s-.435.977-.969.977h-6.188v.866h6.188c.593 0 1.116-.29 1.45-.733l6.051-2.944c.297-.146.628-.127.909.05s.44.469.44.801a.95.95 0 0 1-.479.825zM16.721 12.938h-.859v.803h.859v-.803zM16.721 14.539h-.859v.803h.859v-.803zM16.721 16.139h-.859v.802h.859v-.802z"/></symbol><symbol id="icon-logo5" viewBox="0 0 32 32"><path d="M4.124 29.091h23.775c.118-2.634-.076-7.005-1.743-9.085l-.06-.075-3.643-1.777c.079-.259.118-.497.134-.671a1.204 1.204 0 0 0-.089-.585c-.601-1.397-1.873-2.132-2.572-2.446.213-.417.351-.865.417-1.323.396-.108.714-.413.819-.82l.425-1.678a1.109 1.109 0 0 0-.395-1.152c1.199-2.646-.809-5.14-.918-5.272-2.175-2.284-4.921-1.857-5.067-1.832-3.964.807-5.494 3.758-4.63 7.221a1.112 1.112 0 0 0-.268 1.035l.427 1.68c.104.404.42.708.813.817a4.267 4.267 0 0 0 1.023 2.207v1.331c-5.689 2.831-2.084 1.025-6.643 3.266-.009.042-2.139 2.241-1.823 8.761l.019.398zm22.949-.836H23.16v-1.597l2.588-5.756c1.297 2.091 1.345 6.083 1.325 7.353zm-5.34-10.843c-.151 1.685-1.102 1.176-1.689 2.474-.462-.493-.601-1.085-.477-1.719.224-1.163-.506-1.508-.326-2.73l.027-.028v-.004c.016-.017.16-.184.201-.236 1.548.656 2.293 1.875 2.263 2.243zm-8.305-1.325a4.5 4.5 0 0 0 2.519.771c.879 0 1.713-.248 2.429-.706.099.961.486 1.153.349 1.86-.026.131-.04.261-.048.388l-2.665 2.918-3.406-3.731.822-.417v-1.082zm-1.072-3.571V8.055c.415-.745.98-1.286 1.683-1.61 1.882 1.035 4.048 2.579 5.501 4.132-.001 1.979.006 1.984-.008 2.147l-.001.01c-.113 1.797-1.634 3.286-3.584 3.286-1.896 0-3.47-1.446-3.584-3.304a2.237 2.237 0 0 1-.007-.201zm-.53 5.473 4.186 4.585 2.81-3.078c.064.18.154.349.257.513l-3.068 3.728-4.575-5.559.389-.189zm8.571-6.146v-1.292l.32-.356c.018.654.09-.118-.32 1.648zm-5.032-8.646c.17.01 2.454-.338 4.26 1.556.071.087 1.541 1.926.95 3.939-.202-.896-.554-2.043-1.111-2.591l-.609.589c.55.541.911 2.188 1.048 3.042-2.521-2.563-5.774-4.186-5.818-4.213-.163.099-1.539.353-2.539 2.24l-.048.09v1.386l-.126.001c-.635-2.979.581-5.346 3.992-6.04zm-4.082 6.9.216.851v.895l-.36-1.414c-.053-.211.108-.291.143-.333zm-.63 8.464 5.359 6.512 3.626-4.406c.394.343.584.392 1.42.809l-.282-.93c-.072-.236.212-.615.383-.789.382-.201.7-.488.939-.843l2.958 1.443-2.753 6.123v1.772H9.72V26.48l-2.754-6.123 3.687-1.798zm-4.378 2.342 2.588 5.755v1.597H4.95c-.02-1.27.029-5.26 1.325-7.351z"/></symbol><symbol id="icon-logo6" viewBox="0 0 32 32"><path d="M3.018 26.77h9.923a3.029 3.029 0 0 0 2.743 1.74h.627c1.189 0 2.24-.682 2.743-1.74h9.928c1.023 0 1.855-.843 1.855-1.879V6.881c0-1.036-.832-1.879-1.855-1.879H27.98v-.839c0-.691-.555-1.253-1.236-1.253H5.25c-.682 0-1.236.562-1.236 1.253v.839h-.995c-1.023 0-1.855.843-1.855 1.879v18.01c0 1.036.832 1.879 1.855 1.879zm23.725-3.865H16.618V8.348c2.34.31 4.155 2.339 4.155 4.794v.565l-.147-.033c-.159-.035-.327-.006-.465.084s-.236.231-.271.393l-.984 4.538a.626.626 0 0 0 .471.745l2.127.475a1.582 1.582 0 0 0 1.881-1.226l.569-2.624a1.606 1.606 0 0 0-1.204-1.911l-.74-.165v-.841c0-3.147-2.367-5.744-5.391-6.06v-2.92h10.126l-.001 18.743zm-5.779-7.873 1.518.339c.19.043.305.226.264.418l-.569 2.624a.366.366 0 0 1-.412.272l-1.52-.34.719-3.313zM5.25 4.162h10.132v2.919c-3.027.313-5.397 2.912-5.397 6.061v.841l-.741.166a1.574 1.574 0 0 0-.992.702c-.228.361-.302.79-.211 1.207l.568 2.621a1.593 1.593 0 0 0 1.549 1.266c.112 0 .223-.012.337-.037l2.118-.474a.626.626 0 0 0 .47-.745l-.984-4.538a.618.618 0 0 0-.737-.477l-.141.032v-.564c0-2.457 1.817-4.487 4.161-4.795v14.558H5.25V4.162zm5.775 10.871.72 3.313-1.512.338a.35.35 0 0 1-.415-.27l-.569-2.627a.35.35 0 0 1 .262-.416l1.515-.339zM2.4 6.881c0-.345.277-.626.618-.626h.995v16.65c0 .691.555 1.253 1.236 1.253h21.494c.682 0 1.236-.562 1.236-1.253V6.255h1.002c.341 0 .618.281.618.626v18.01a.623.623 0 0 1-.618.626H18.632a.62.62 0 0 0-.591.443 1.805 1.805 0 0 1-1.732 1.297h-.627a1.81 1.81 0 0 1-1.734-1.304.62.62 0 0 0-.589-.435H3.017a.623.623 0 0 1-.618-.626V6.882z"/></symbol></defs></svg>