<svg aria-hidden="true" style="width:0;height:0;position:absolute;overflow:hidden" xmlns="http://www.w3.org/2000/svg"><defs><symbol id="icon-Group3" viewBox="0 0 32 32"><path fill="#ff6b09" style="fill:var(--color1,#ff6b09)" d="M7.575 14.543c0 .23-.35.23-.35 0a8.867 8.867 0 0 1 8.866-8.866 8.865 8.865 0 0 1 8.866 8.866c0 .23-.347.23-.347 0 0-3.309-5.438-3.311-5.438 0 0 .23-.358.23-.358 0 0-3.301-5.446-3.301-5.446 0 0 .23-.358.23-.358 0 0-3.294-5.435-3.317-5.435 0zm5.467-1.285c.094-1.905.393-3.612.829-4.916.347-1.036.787-1.823 1.285-2.265a8.523 8.523 0 0 0-7.441 6.917c1.287-1.856 4.259-1.708 5.327.264zm5.745-.086c-.096-1.831-.387-3.47-.806-4.72-1.08-3.234-2.7-3.234-3.78 0-.419 1.25-.707 2.888-.806 4.72 1.162-1.974 4.23-1.974 5.391 0zm5.681-.178a8.518 8.518 0 0 0-7.441-6.917c.5.442.938 1.229 1.285 2.265.435 1.304.735 3.012.829 4.916 1.074-1.982 4.054-2.099 5.327-.264zM14.928 18.6v-1.8c-.324.216-.58.549-.58.955 0 .396.259.657.58.846zm.35.559c-.622-.285-1.277-.618-1.277-1.405 0-.812.617-1.218 1.277-1.522v2.927zM17.255 21.316v1.821c.329-.218.586-.553.586-.959 0-.4-.264-.67-.586-.862zm-.347-.561c.624.289 1.283.632 1.283 1.423 0 .814-.622 1.22-1.283 1.522v-2.945z"/><path fill="#ff6b09" style="fill:var(--color1,#ff6b09)" d="M17.255 14.751c1.432.331 2.903 1.402 2.903 3.004 0 1.371-2.317 1.321-2.317 0 0-.408-.257-.743-.586-.959v2.562c1.325.433 2.907 1.21 2.907 2.821 0 1.603-1.471 2.673-2.907 3.001-.006 1.526-2.323 1.524-2.327-.002-.816-.188-1.526-.569-2.039-1.074-.538-.532-.856-1.199-.856-1.926 0-1.35 2.315-1.35 2.315 0 0 .404.255.737.58.952v-2.56c-1.314-.425-2.905-1.224-2.905-2.821 0-1.603 1.471-2.673 2.905-3.001.006-1.526 2.323-1.524 2.327.002zm-1.978.004v.278c-1.363.27-2.907 1.143-2.907 2.717 0 1.513 1.695 2.191 2.907 2.566v3.382c-.655-.299-1.277-.703-1.277-1.52 0-.892-1.62-.892-1.62 0 0 .63.28 1.212.753 1.677.601.594 1.329.877 2.143 1.038v.28c0 1.074 1.63 1.074 1.63 0v-.278c1.367-.272 2.905-1.145 2.905-2.717 0-1.528-1.691-2.185-2.905-2.568v-3.38c.657.299 1.283.703 1.283 1.524 0 .869 1.618.904 1.618 0 0-1.572-1.536-2.447-2.901-2.719v-.28c0-1.074-1.63-1.074-1.63 0z"/><path fill="none" stroke="#ff6b09" style="stroke:var(--color1,#ff6b09)" stroke-width="1.032" d="M31.484 4.767V.517H.516v30.968h30.968v-4.25"/></symbol><symbol id="icon-Group2" viewBox="0 0 32 32"><path fill="#ff6b09" style="fill:var(--color1,#ff6b09)" d="M25.116 5.077H14.703a1.23 1.23 0 0 0-1.229 1.229v4.31l-7.736 3.247a.251.251 0 0 0-.032.448l.987.59v6.292A1.137 1.137 0 0 0 5.81 22.3v.607c0 .139.113.252.252.252h1.767a.252.252 0 0 0 .252-.252V22.3c0-.54-.379-.99-.883-1.106v-5.991l.78.467c-.024.18-.003-.313-.011 2.929 0 1.066 2.73 1.637 5.509 1.67v4.91a1.228 1.228 0 0 0 1.228 1.227h10.413a1.23 1.23 0 0 0 1.228-1.228V6.305c0-.669-.553-1.229-1.227-1.229zM7.576 22.301v.355H6.313v-.355a.632.632 0 1 1 1.263 0zm17.54 3.601H14.703a.725.725 0 0 1-.725-.723v-1.702h11.86v1.703a.728.728 0 0 1-.722.722zm.722-2.929h-11.86v-2.702c1.356-.016 5.512-.314 5.512-1.671-.002-2.037.004-2.863-.006-2.933l2.262-1.355a.252.252 0 0 0-.032-.448l-7.736-3.247V8.513h11.86v14.461zm-12.112-6.046c-1.397 0-4.088.18-5.257.944.007-2.335-.081-2.183.206-2.38.726-.535 2.803-.908 5.05-.908.98 0 5.26.269 5.26 1.176v2.113c-1.18-.77-3.857-.944-5.26-.944zm.252-10.621c0-.399.325-.724.724-.724h10.413c.4 0 .723.329.723.724v1.702h-11.86V6.306zm-.252 4.751 7.334 3.078-1.817 1.087c-.966-.958-4.162-1.144-5.517-1.144-1.356 0-4.552.186-5.517 1.144l-1.818-1.088 7.334-3.078zM8.469 18.6c0-.408 1.805-1.169 5.257-1.169 3.453 0 5.26.761 5.26 1.169s-1.807 1.169-5.26 1.169c-3.451 0-5.257-.761-5.257-1.169z"/><path fill="#ff6b09" style="fill:var(--color1,#ff6b09)" d="M19.909 23.857a.834.834 0 0 0 0 1.667.834.834 0 0 0 0-1.667zm0 1.163a.33.33 0 1 1 0-.659.33.33 0 0 1 0 .659zM20.87 6.543h-1.922v.504h1.922v-.504z"/><path fill="none" stroke="#ff6b09" style="stroke:var(--color1,#ff6b09)" stroke-width="1.032" d="M31.484 4.767V.517H.516v30.968h30.968v-4.25"/></symbol><symbol id="icon-Group1" viewBox="0 0 32 32"><path fill="#ff6b09" style="fill:var(--color1,#ff6b09)" d="M7.16 26.167h17.28c.086-1.971-.056-5.24-1.267-6.796l-.044-.056-2.648-1.329a2.54 2.54 0 0 0 .097-.502.932.932 0 0 0-.064-.437c-.437-1.045-1.361-1.595-1.869-1.83.155-.312.255-.647.303-.99a.849.849 0 0 0 .595-.613l.309-1.255a.853.853 0 0 0-.097-.647.856.856 0 0 0-.19-.216c.871-1.979-.588-3.845-.668-3.944-1.581-1.709-3.577-1.389-3.683-1.37-2.881.603-3.993 2.812-3.366 5.402a.85.85 0 0 0-.195.774l.311 1.257a.848.848 0 0 0 .591.611c.088.627.354 1.194.743 1.651v.995c-4.135 2.117-1.515.767-4.828 2.443-.007.031-1.555 1.677-1.325 6.554l.014.298zm16.68-.626h-2.844v-1.195l1.881-4.306c.942 1.564.977 4.55.963 5.501zm-3.882-8.111c-.11 1.261-.801.88-1.228 1.851-.336-.369-.437-.812-.346-1.286.163-.87-.368-1.128-.237-2.043l.02-.021v-.003c.011-.013.116-.137.146-.177 1.125.491 1.667 1.403 1.645 1.678zm-6.036-.991a3.205 3.205 0 0 0 3.596.048c.072.719.353.863.253 1.391a2.269 2.269 0 0 0-.035.29l-1.937 2.183-2.476-2.791.598-.312v-.809zm-.779-2.672V10.43c.301-.558.712-.962 1.223-1.204 1.368.774 2.942 1.929 3.998 3.091-.001 1.48.004 1.484-.006 1.606l-.001.008a2.613 2.613 0 0 1-2.605 2.458 2.62 2.62 0 0 1-2.61-2.623zm-.385 4.095 3.043 3.43 2.043-2.302c.047.134.112.261.187.384l-2.23 2.788-3.325-4.159.282-.142zm6.229-4.598v-.966l.232-.266c.013.489.066-.088-.232 1.233zM15.33 6.796c.124.008 1.784-.253 3.096 1.164.052.065 1.12 1.441.691 2.947-.147-.67-.403-1.528-.807-1.938l-.442.441c.399.405.662 1.637.762 2.276-1.833-1.918-4.196-3.131-4.229-3.152-.119.074-1.119.264-1.845 1.676l-.035.068v1.037l-.092.001c-.462-2.229.422-3.999 2.902-4.519zm-2.967 5.162.157.637v.669l-.261-1.058c-.038-.158.078-.217.104-.249zm-.458 6.332 3.895 4.872 2.635-3.296c.287.257.425.293 1.032.606l-.205-.695c-.052-.177.154-.46.278-.59.278-.151.509-.365.682-.631l2.15 1.08-2.001 4.581v1.326h-9.146v-1.326l-2.002-4.58 2.68-1.345zm-3.182 1.752 1.881 4.305v1.195H7.76c-.014-.95.021-3.935.963-5.499z"/><path fill="none" stroke="#ff6b09" style="stroke:var(--color1,#ff6b09)" stroke-width="1.032" d="M31.484 4.767V.517H.516v30.968h30.968v-4.25"/></symbol></defs></svg>