<svg aria-hidden="true" style="width:0;height:0;position:absolute;overflow:hidden" xmlns="http://www.w3.org/2000/svg"><defs><symbol id="icon-campfire" viewBox="0 0 24 32"><path fill="#ff6b09" style="fill:var(--color1,#ff6b09)" d="M22.474 16.593c-.271-.635-.645-1.261-1.192-1.983-1.379-1.813-1.8-5.857-1.805-5.896a.484.484 0 0 0-.323-.412.461.461 0 0 0-.496.141c-1.646 1.925-.954 4.897-.58 6.085.103.325.215.708.294 1.096.608 3.137-.566 4.558-.841 4.844-.267.078-.449.039-.617-.15-.58-.664-.772-2.841-.5-5.678a6.095 6.095 0 0 0-.037-1.581c-.572-3.486-2.669-5.722-3.202-6.507-1.468-2.269-1.618-6.046-1.622-6.08a.478.478 0 0 0-.257-.417.448.448 0 0 0-.472.034C8.374 1.83 8.585 6.024 8.926 8.365c.079.543.234 1.096.5 1.794.949 2.497-.187 5.721-.196 5.75s-.019.053-.023.082c-.145.795-.388 1.27-.659 1.27a.302.302 0 0 1-.089-.015c-.332-.073-.505-.441-.51-.761-.019-4.136-3.988-5.527-4.03-5.542a.454.454 0 0 0-.496.145.492.492 0 0 0-.065.533c.047.102.196.548.094 2.124a18.882 18.882 0 0 1-.734 4.16c-.944 3.219-.795 6.269-.785 6.415.726 8.257 12.082 9.704 18.822 5.052.739-.509 1.342-1.091 1.786-1.731 2.487-3.588 1.024-8.46-.065-11.05zM5.199 24.481a.476.476 0 0 1-.439.509h-.028a.475.475 0 0 1-.468-.456 18.19 18.19 0 0 1 .019-2.255.48.48 0 0 1 .5-.451.482.482 0 0 1 .435.519 16.46 16.46 0 0 0-.019 2.133zm.229-4.296a.472.472 0 0 1-.463.427c-.019 0-.037 0-.061-.005a.486.486 0 0 1-.407-.538l.224-1.872a.477.477 0 0 1 .524-.422.483.483 0 0 1 .407.543l-.224 1.867zM19.312 6.633a.483.483 0 0 1-.391-.553c.029-.197.198-1.205.656-1.713.176-.196.472-.206.661-.022s.198.49.021.685c-.194.215-.359.829-.415 1.197a.471.471 0 0 1-.534.405zM2.267 9.048c-.09-.361-.312-.955-.525-1.149-.194-.177-.214-.483-.043-.684s.465-.222.66-.045c.504.458.767 1.445.815 1.638a.487.487 0 0 1-.336.59.466.466 0 0 1-.569-.349z"/></symbol><symbol id="icon-instagram" viewBox="0 0 32 32"><path style="fill:var(--color2,#000)" d="M31.452 5.724A5.827 5.827 0 0 0 26.276.548a96.718 96.718 0 0 0-20.553 0A5.827 5.827 0 0 0 .547 5.724a96.718 96.718 0 0 0 0 20.553 5.827 5.827 0 0 0 5.176 5.176c6.844.73 13.709.73 20.553 0a5.828 5.828 0 0 0 5.176-5.176c.73-6.844.73-13.708 0-20.553z"/><path style="fill:var(--color2,#000)" d="M29.712 6.881a5.17 5.17 0 0 0-4.593-4.593 85.795 85.795 0 0 0-18.238 0 5.171 5.171 0 0 0-4.593 4.593 85.795 85.795 0 0 0 0 18.238 5.17 5.17 0 0 0 4.593 4.593 85.795 85.795 0 0 0 18.238 0 5.17 5.17 0 0 0 4.593-4.593 85.795 85.795 0 0 0 0-18.238z"/><path style="fill:var(--color2,#000)" d="m.48 25.613.068.664a5.828 5.828 0 0 0 5.176 5.176c6.844.73 13.709.73 20.552 0a5.827 5.827 0 0 0 5.176-5.176c.024-.221.046-.442.069-.664H.48z"/><path style="fill:var(--color2,#000)" d="M31.452 26.276c.393-3.678.574-7.361.544-11.044l-7.314-7.314c-.914-1.043-2.249-1.694-3.817-1.751-3.225-.116-6.461-.11-9.687 0-2.679.092-4.553 1.893-5.033 4.54-.085.467-.136.941-.202 1.411v7.759c.037.252.091.502.108.755.107 1.61.769 2.989 1.828 3.922l7.443 7.443a96.755 96.755 0 0 0 10.954-.545 5.828 5.828 0 0 0 5.176-5.176z"/><path style="fill:var(--color2,#000)" d="M31.452 26.277a5.827 5.827 0 0 1-5.176 5.176 96.738 96.738 0 0 1-10.953.545l-7.432-7.432c.862.754 1.985 1.213 3.288 1.262 3.225.121 6.461.118 9.686.002 2.917-.105 5.028-2.264 5.119-5.181.097-3.097.097-6.202 0-9.3-.042-1.346-.514-2.53-1.297-3.426l7.31 7.31a96.729 96.729 0 0 1-.545 11.044z"/><path style="fill:var(--color2,#000)" d="M19.776 12.535a5.125 5.125 0 1 0-7.241 7.241l11.859 11.859c.628-.055 1.255-.116 1.883-.182a5.827 5.827 0 0 0 5.176-5.176c.067-.627.128-1.255.182-1.883L19.776 12.535zm12.162 6.912-9.544-9.544a1.22 1.22 0 0 0-2.189.737c0 .396.19.747.482.969l11.08 11.08c.075-1.081.132-2.162.171-3.243z"/><path style="fill:var(--color2,#000)" d="M5.943 12.119c.067-.471.117-.944.202-1.411.48-2.647 2.354-4.447 5.033-4.54 3.226-.111 6.461-.117 9.687 0 2.916.105 5.028 2.264 5.119 5.181.097 3.097.097 6.202 0 9.3-.091 2.917-2.202 5.076-5.119 5.181-3.225.116-6.462.119-9.687-.002-2.916-.11-4.933-2.274-5.128-5.195-.017-.253-.071-.503-.108-.755v-7.759zm10.06 11.982c1.476 0 2.954.044 4.428-.01 2.311-.086 3.733-1.465 3.787-3.774.067-2.877.067-5.758 0-8.636-.054-2.309-1.477-3.72-3.787-3.769a208.195 208.195 0 0 0-8.8 0c-2.293.048-3.719 1.431-3.781 3.714a161.406 161.406 0 0 0 0 8.746c.062 2.283 1.488 3.634 3.781 3.719 1.456.054 2.915.01 4.372.01z"/><path fill="#fff" style="fill:var(--color3,#fff)" d="M5.943 12.119c.067-.471.117-.944.202-1.411.48-2.647 2.354-4.447 5.033-4.54 3.226-.111 6.461-.117 9.687 0 2.916.105 5.028 2.264 5.119 5.181.097 3.097.097 6.202 0 9.3-.091 2.917-2.202 5.076-5.119 5.181-3.225.116-6.462.119-9.687-.002-2.916-.11-4.933-2.274-5.128-5.195-.017-.253-.071-.503-.108-.755v-7.759zm10.06 11.982c1.476 0 2.954.044 4.428-.01 2.311-.086 3.733-1.465 3.787-3.774.067-2.877.067-5.758 0-8.636-.054-2.309-1.477-3.72-3.787-3.769a208.195 208.195 0 0 0-8.8 0c-2.293.048-3.719 1.431-3.781 3.714a161.406 161.406 0 0 0 0 8.746c.062 2.283 1.488 3.634 3.781 3.719 1.456.054 2.915.01 4.372.01z"/><path fill="#fff" style="fill:var(--color3,#fff)" d="M16 10.875a5.125 5.125 0 1 0 0 10.25 5.125 5.125 0 0 0 0-10.25zm0 8.486a3.361 3.361 0 1 1 0-6.723 3.361 3.361 0 0 1 0 6.723zm6.644-8.72a1.22 1.22 0 1 1-2.439 0 1.22 1.22 0 0 1 2.439 0z"/></symbol><symbol id="icon-phone" viewBox="0 0 32 32"><path fill="#ff6b09" style="fill:var(--color1,#ff6b09)" d="M4.657.003a1.969 1.969 0 0 0-1.392.678L.67 3.65c.004-.009-.01-.008-.084.101a.656.656 0 0 0-.09.184C-.56 7.437.148 11.289 1.872 14.953S6.347 22.123 9.505 25s6.721 5.128 10.119 6.244c3.397 1.116 6.692 1.102 9.133-.742a.678.678 0 0 0 .075-.068c.064-.067.066-.075.056-.065l.01-.013L31.48 27.4c.742-.849.682-2.184-.134-2.956l-6.126-5.8a1.965 1.965 0 0 0-2.84.138l-2.772 3.173c-2.25-.678-4.173-1.828-6.023-3.58s-3.132-3.637-3.993-5.905l2.771-3.173c.742-.849.683-2.184-.133-2.956L6.104.542A1.962 1.962 0 0 0 4.656.003h-.001zm.058 1.301c.19-.009.383.06.541.209l6.126 5.799a.788.788 0 0 1 .05 1.104L8.369 11.92a.675.675 0 0 0-.124.666c.93 2.641 2.429 4.807 4.493 6.761s4.275 3.304 6.889 4.018a.61.61 0 0 0 .626-.193l3.064-3.505a.716.716 0 0 1 1.06-.051l6.127 5.8a.786.786 0 0 1 .049 1.103l-2.561 2.93c-2.003 1.497-4.826 1.581-7.986.542-3.173-1.043-6.617-3.202-9.666-5.98s-5.702-6.169-7.332-9.634C1.394 10.948.809 7.482 1.696 4.427l2.502-2.862a.736.736 0 0 1 .52-.261z"/></symbol></defs></svg>