<svg aria-hidden="true" xmlns="http://www.w3.org/2000/svg">
    <defs>
        <symbol id="icon-close" viewBox="0 0 32 32">
            <path fill="none" stroke="#fff" style="stroke:var(--color1, #fff)" stroke-linecap="round"
                stroke-width="3.765" d="M1.882 29.168 29.168 1.882M29.169 29.168 1.883 1.882" />
        </symbol>

        <symbol id="icon-menu" viewBox="0 0 23 14">
            <path d="M1 1h21M1 7h21M1 13h21" stroke="#000" stroke-width="2" stroke-linecap="round" />
        </symbol>

        <symbol id="icon-logo" viewBox="0 0 80 20">
            <path
                d="M11.327 5.727v12.117H7.959v-4.726H3.367v4.726H0V5.727h3.367v4.553H7.96V5.727h3.368ZM23.65 13.17c0 .024-.016.295-.05.814h-6.7c.135.485.396.86.781 1.125.397.254.89.381 1.48.381.442 0 .822-.063 1.14-.19.328-.127.657-.335.986-.624l1.7 1.8C22.093 17.493 20.783 18 19.06 18c-1.077 0-2.024-.208-2.84-.623-.817-.416-1.451-.993-1.905-1.731-.442-.739-.663-1.575-.663-2.51 0-.923.215-1.748.646-2.475a4.649 4.649 0 0 1 1.82-1.732c.77-.415 1.638-.623 2.602-.623.918 0 1.752.196 2.5.589.748.38 1.338.94 1.769 1.679.442.727.663 1.592.663 2.596Zm-4.914-2.527c-.499 0-.919.144-1.259.433-.329.288-.538.68-.629 1.177h3.776c-.091-.496-.306-.889-.647-1.177-.328-.289-.742-.433-1.241-.433ZM25.82 5h3.232v12.844h-3.231V5ZM31.832 5h3.232v12.844h-3.232V5Z"
                fill="#111518" />
            <g clip-path="url(#a)" fill="#FF6B09">
                <path
                    d="M52.046 10.37c-.17-.397-.403-.787-.745-1.239-.862-1.133-1.125-3.66-1.128-3.685a.302.302 0 0 0-.201-.257.288.288 0 0 0-.31.087c-1.029 1.203-.596 3.061-.362 3.803.064.204.134.443.184.685.38 1.96-.354 2.849-.526 3.028-.167.048-.28.024-.386-.094-.362-.415-.482-1.776-.313-3.549.035-.36.027-.685-.023-.988-.357-2.179-1.668-3.576-2.002-4.066-.917-1.419-1.01-3.78-1.014-3.8a.298.298 0 0 0-.16-.261.281.281 0 0 0-.295.021c-1.532 1.088-1.4 3.71-1.187 5.173.05.34.146.685.313 1.121.593 1.56-.117 3.576-.123 3.594-.006.018-.011.033-.014.052-.091.497-.243.794-.412.794a.194.194 0 0 1-.056-.01c-.207-.045-.316-.275-.318-.475-.012-2.585-2.493-3.455-2.52-3.464a.283.283 0 0 0-.309.091.309.309 0 0 0-.04.333c.028.064.122.343.058 1.328-.056.884-.21 1.76-.46 2.6a13.223 13.223 0 0 0-.49 4.009c.454 5.16 7.552 6.065 11.764 3.157a4.34 4.34 0 0 0 1.116-1.082c1.555-2.242.64-5.287-.04-6.906ZM41.25 15.3a.298.298 0 0 1-.274.319h-.018a.297.297 0 0 1-.292-.285c-.026-.442-.02-.906.012-1.41a.3.3 0 0 1 .313-.28c.16.011.283.157.271.323-.032.48-.038.915-.012 1.334Zm.144-2.684a.295.295 0 0 1-.29.267c-.011 0-.023 0-.038-.003a.303.303 0 0 1-.254-.337l.14-1.17a.298.298 0 0 1 .328-.263c.16.021.274.173.254.34l-.14 1.166ZM50.07 4.146a.302.302 0 0 1-.244-.345c.018-.124.123-.754.41-1.07a.285.285 0 0 1 .413-.015.311.311 0 0 1 .013.429c-.12.134-.224.518-.259.748a.294.294 0 0 1-.333.253ZM39.417 5.655c-.056-.225-.195-.597-.328-.718a.31.31 0 0 1-.027-.428.284.284 0 0 1 .412-.028c.315.287.48.903.51 1.024a.304.304 0 0 1-.211.368.292.292 0 0 1-.356-.218Z" />
            </g>
            <path
                d="M66.356 14.377V17h-9.398V5h9.18v2.623h-5.902v2.023h5.2v2.537h-5.2v2.194h6.12ZM80 5v12h-2.726l-5.167-6.394V17h-3.245V5h2.726l5.168 6.394V5H80Z"
                fill="#111518" />
        </symbol>
        <clipPath id="logo">
            <path fill="#fff" transform="translate(38.952)" d="M0 0h14.025v20H0z" />
        </clipPath>
    </defs>
</svg>