<svg width="40" height="11" fill="none" xmlns="http://www.w3.org/2000/svg"><path d="M0 6.738V5.38h14v1.358H0Zm24.95 3.43c-.802 0-1.52-.196-2.155-.588-.635-.401-1.134-.98-1.498-1.736-.364-.756-.546-1.67-.546-2.744 0-1.073.182-1.988.546-2.744.364-.756.863-1.33 1.498-1.722.634-.401 1.353-.602 2.156-.602.812 0 1.53.2 2.156.602.634.392 1.134.966 1.498 1.722.364.756.546 1.67.546 2.744 0 1.073-.182 1.988-.546 2.744-.364.756-.864 1.335-1.498 1.736-.625.392-1.344.588-2.156.588Zm0-1.918c.384 0 .715-.107.995-.322.29-.215.513-.555.672-1.022.168-.467.252-1.069.252-1.806 0-.737-.084-1.34-.252-1.806-.159-.467-.383-.807-.672-1.022a1.586 1.586 0 0 0-.994-.322c-.373 0-.705.107-.994.322-.28.215-.504.555-.672 1.022-.159.467-.238 1.069-.238 1.806 0 .737.08 1.34.238 1.806.168.467.392.807.672 1.022.29.215.62.322.994.322Zm10.805 1.918c-.896 0-1.675-.187-2.338-.56-.654-.373-1.157-.92-1.512-1.638-.355-.719-.532-1.605-.532-2.66 0-1.13.21-2.086.63-2.87A4.409 4.409 0 0 1 33.767.648c.756-.41 1.624-.616 2.604-.616A6.52 6.52 0 0 1 37.869.2c.476.112.886.28 1.232.504l-.84 1.666a2.392 2.392 0 0 0-.868-.378 4.087 4.087 0 0 0-.966-.112c-.85 0-1.521.257-2.016.77-.495.513-.742 1.274-.742 2.282v.56c.01.205.037.41.084.616l-.63-.588a2.82 2.82 0 0 1 .686-.91c.28-.252.611-.439.994-.56a4.07 4.07 0 0 1 1.288-.196c.634 0 1.204.126 1.708.378s.905.607 1.204 1.064c.308.457.462.994.462 1.61 0 .663-.168 1.241-.504 1.736a3.3 3.3 0 0 1-1.33 1.134c-.55.261-1.176.392-1.876.392Zm-.126-1.694c.317 0 .597-.056.84-.168a1.38 1.38 0 0 0 .588-.518c.14-.224.21-.48.21-.77 0-.448-.154-.803-.462-1.064-.299-.27-.7-.406-1.204-.406-.336 0-.63.065-.882.196a1.479 1.479 0 0 0-.602.518c-.14.215-.21.467-.21.756 0 .28.07.532.21.756.14.215.336.387.588.518.252.121.56.182.924.182Z" fill="#FF6B09"/></svg>