<svg width="41" height="11" fill="none" xmlns="http://www.w3.org/2000/svg"><path d="M0 6.738V5.38h14v1.358H0Zm24.95 3.43c-.802 0-1.52-.196-2.155-.588-.635-.401-1.134-.98-1.498-1.736-.364-.756-.546-1.67-.546-2.744 0-1.073.182-1.988.546-2.744.364-.756.863-1.33 1.498-1.722.634-.401 1.353-.602 2.156-.602.812 0 1.53.2 2.156.602.634.392 1.134.966 1.498 1.722.364.756.546 1.67.546 2.744 0 1.073-.182 1.988-.546 2.744-.364.756-.864 1.335-1.498 1.736-.625.392-1.344.588-2.156.588Zm0-1.918c.384 0 .715-.107.995-.322.29-.215.513-.555.672-1.022.168-.467.252-1.069.252-1.806 0-.737-.084-1.34-.252-1.806-.159-.467-.383-.807-.672-1.022a1.586 1.586 0 0 0-.994-.322c-.373 0-.705.107-.994.322-.28.215-.504.555-.672 1.022-.159.467-.238 1.069-.238 1.806 0 .737.08 1.34.238 1.806.168.467.392.807.672 1.022.29.215.62.322.994.322Zm6.31-.308V6.416L35.88.2h2.38l-4.52 6.216-1.106-.322h7.714v1.848H31.26ZM36.54 10V7.942l.07-1.848V4.26h2.142V10H36.54Z" fill="#FF6B09"/></svg>