<svg width="39" height="11" fill="none" xmlns="http://www.w3.org/2000/svg"><path d="M0 6.738V5.38h14v1.358H0Zm24.95 3.43c-.802 0-1.52-.196-2.155-.588-.635-.401-1.134-.98-1.498-1.736-.364-.756-.546-1.67-.546-2.744 0-1.073.182-1.988.546-2.744.364-.756.863-1.33 1.498-1.722.634-.401 1.353-.602 2.156-.602.812 0 1.53.2 2.156.602.634.392 1.134.966 1.498 1.722.364.756.546 1.67.546 2.744 0 1.073-.182 1.988-.546 2.744-.364.756-.864 1.335-1.498 1.736-.625.392-1.344.588-2.156.588Zm0-1.918c.384 0 .715-.107.995-.322.29-.215.513-.555.672-1.022.168-.467.252-1.069.252-1.806 0-.737-.084-1.34-.252-1.806-.159-.467-.383-.807-.672-1.022a1.586 1.586 0 0 0-.994-.322c-.373 0-.705.107-.994.322-.28.215-.504.555-.672 1.022-.159.467-.238 1.069-.238 1.806 0 .737.08 1.34.238 1.806.168.467.392.807.672 1.022.29.215.62.322.994.322Zm9.755 1.918a7.927 7.927 0 0 1-2.03-.266c-.663-.187-1.232-.448-1.708-.784l.896-1.736a4.865 4.865 0 0 0 2.786.882c.57 0 1.017-.112 1.344-.336.326-.224.49-.537.49-.938 0-.252-.066-.476-.196-.672-.13-.196-.364-.345-.7-.448-.327-.103-.789-.154-1.386-.154h-2.506L32.199.2h5.978v1.82H33.01L34.187.984l-.35 3.934-1.176-1.036h2.072c.97 0 1.75.135 2.338.406.597.261 1.031.62 1.302 1.078.27.457.406.975.406 1.554 0 .579-.145 1.115-.434 1.61-.29.485-.737.882-1.344 1.19-.597.299-1.363.448-2.296.448Z" fill="#FF6B09"/></svg>