<svg width="39" height="11" fill="none" xmlns="http://www.w3.org/2000/svg"><path d="M0 6.738V5.38h14v1.358H0Zm24.95 3.43c-.802 0-1.52-.196-2.155-.588-.635-.401-1.134-.98-1.498-1.736-.364-.756-.546-1.67-.546-2.744 0-1.073.182-1.988.546-2.744.364-.756.863-1.33 1.498-1.722.634-.401 1.353-.602 2.156-.602.812 0 1.53.2 2.156.602.634.392 1.134.966 1.498 1.722.364.756.546 1.67.546 2.744 0 1.073-.182 1.988-.546 2.744-.364.756-.864 1.335-1.498 1.736-.625.392-1.344.588-2.156.588Zm0-1.918c.384 0 .715-.107.995-.322.29-.215.513-.555.672-1.022.168-.467.252-1.069.252-1.806 0-.737-.084-1.34-.252-1.806-.159-.467-.383-.807-.672-1.022a1.586 1.586 0 0 0-.994-.322c-.373 0-.705.107-.994.322-.28.215-.504.555-.672 1.022-.159.467-.238 1.069-.238 1.806 0 .737.08 1.34.238 1.806.168.467.392.807.672 1.022.29.215.62.322.994.322ZM31.235 10V8.53l3.78-3.57c.299-.27.518-.513.658-.728.14-.215.233-.41.28-.588.056-.177.084-.34.084-.49 0-.392-.135-.69-.406-.896-.261-.215-.649-.322-1.162-.322-.41 0-.793.08-1.148.238-.345.159-.64.406-.882.742l-1.652-1.064c.373-.56.896-1.003 1.568-1.33.672-.327 1.447-.49 2.324-.49.728 0 1.363.121 1.904.364.55.233.975.565 1.274.994.308.43.462.943.462 1.54 0 .317-.042.635-.126.952-.075.308-.233.635-.476.98-.233.345-.579.733-1.036 1.162l-3.136 2.954-.434-.826h5.53V10h-7.406Z" fill="#FF6B09"/></svg>