<svg width="39" height="11" fill="none" xmlns="http://www.w3.org/2000/svg"><path d="M0 6.738V5.38h14v1.358H0Zm24.95 3.43c-.802 0-1.52-.196-2.155-.588-.635-.401-1.134-.98-1.498-1.736-.364-.756-.546-1.67-.546-2.744 0-1.073.182-1.988.546-2.744.364-.756.863-1.33 1.498-1.722.634-.401 1.353-.602 2.156-.602.812 0 1.53.2 2.156.602.634.392 1.134.966 1.498 1.722.364.756.546 1.67.546 2.744 0 1.073-.182 1.988-.546 2.744-.364.756-.864 1.335-1.498 1.736-.625.392-1.344.588-2.156.588Zm0-1.918c.384 0 .715-.107.995-.322.29-.215.513-.555.672-1.022.168-.467.252-1.069.252-1.806 0-.737-.084-1.34-.252-1.806-.159-.467-.383-.807-.672-1.022a1.586 1.586 0 0 0-.994-.322c-.373 0-.705.107-.994.322-.28.215-.504.555-.672 1.022-.159.467-.238 1.069-.238 1.806 0 .737.08 1.34.238 1.806.168.467.392.807.672 1.022.29.215.62.322.994.322Zm9.464 1.918a7.926 7.926 0 0 1-2.03-.266c-.672-.187-1.241-.448-1.708-.784l.882-1.736c.373.27.807.485 1.302.644a4.87 4.87 0 0 0 1.498.238c.57 0 1.017-.112 1.344-.336a1.06 1.06 0 0 0 .49-.924 1.04 1.04 0 0 0-.434-.882c-.29-.215-.756-.322-1.4-.322h-1.036V4.302l2.73-3.094.252.812h-5.138V.2h6.86v1.47L35.31 4.764l-1.148-.658h.658c1.204 0 2.114.27 2.73.812.616.541.924 1.237.924 2.086 0 .55-.145 1.069-.434 1.554-.29.476-.733.863-1.33 1.162-.597.299-1.363.448-2.296.448Z" fill="#FF6B09"/></svg>